<svg width="54" height="71" viewBox="0 0 54 71" fill="none" xmlns="http://www.w3.org/2000/svg">
<path d="M52.1011 39.1063L6.92064 70.2206C6.25859 70.6762 5.48379 70.9429 4.68021 70.9918C3.87662 71.0407 3.07491 70.8699 2.36196 70.4979C1.649 70.126 1.052 69.567 0.635642 68.8816C0.219288 68.1963 -0.000532504 67.4106 9.68686e-07 66.6099V4.39014C-0.000532504 3.58937 0.219288 2.80372 0.635642 2.11835C1.052 1.43298 1.649 0.874017 2.36196 0.502048C3.07491 0.130079 3.87662 -0.04071 4.68021 0.00818868C5.48379 0.0570873 6.25859 0.32381 6.92064 0.779449L52.1011 31.8937C52.687 32.2975 53.1658 32.8364 53.4965 33.4645C53.8272 34.0926 54 34.791 54 35.5C54 36.209 53.8272 36.9074 53.4965 37.5355C53.1658 38.1636 52.687 38.7025 52.1011 39.1063Z" fill="#F7FAFC"/>
</svg>
