<svg width="33" height="32" viewBox="0 0 33 32" fill="none" xmlns="http://www.w3.org/2000/svg">
<path d="M14.0996 26.9775C14.4102 27.3008 14.7828 27.558 15.1953 27.7337C15.6077 27.9094 16.0513 28 16.4996 28C16.9479 28 17.3916 27.9094 17.804 27.7337C18.2164 27.558 18.5891 27.3008 18.8996 26.9775" stroke="#DEE1E6" strokeWidth="1.92" stroke-miterlimit="10" stroke-linecap="square"/>
<path d="M24.4991 15.2V11.92C24.4358 9.8258 23.5701 7.83601 22.0812 6.36197C20.5923 4.88792 18.5939 4.04234 16.4991 4C14.3965 4.0604 12.3966 4.92264 10.9092 6.41004C9.42178 7.89744 8.55954 9.89737 8.49914 12L8.49914 15.2C8.49914 18.8 5.61914 19.44 5.61914 21.44C5.61914 23.28 9.85914 24.72 16.4991 24.72C23.1391 24.72 27.3791 23.28 27.3791 21.44C27.3791 19.44 24.4991 18.8 24.4991 15.2Z" stroke="#DEE1E6" strokeWidth="1.92" stroke-miterlimit="10" stroke-linecap="square"/>
</svg>
