<svg width="33" height="32" viewBox="0 0 33 32" fill="none" xmlns="http://www.w3.org/2000/svg">
<path d="M26.1 4.7998L6.9 4.7998C6.26348 4.7998 5.65303 5.05266 5.20294 5.50275C4.75286 5.95284 4.5 6.56329 4.5 7.1998L4.5 19.9998C4.5 20.6363 4.75286 21.2468 5.20294 21.6969C5.65303 22.1469 6.26348 22.3998 6.9 22.3998L12.5 22.3998L16.5 27.1998L20.5 22.3998H26.1C26.7365 22.3998 27.347 22.1469 27.7971 21.6969C28.2471 21.2468 28.5 20.6363 28.5 19.9998L28.5 7.1998C28.5 6.56329 28.2471 5.95284 27.7971 5.50275C27.347 5.05266 26.7365 4.7998 26.1 4.7998Z" stroke="#DEE1E6" stroke-width="1.92" stroke-miterlimit="10" stroke-linecap="square"/>
<path d="M10.0996 11.2002L22.8996 11.2002" stroke="#DEE1E6" stroke-width="1.92" stroke-miterlimit="10" stroke-linecap="square"/>
<path d="M10.0996 16H17.2996" stroke="#DEE1E6" stroke-width="1.92" stroke-miterlimit="10" stroke-linecap="square"/>
</svg>
