<svg width="35" height="55" viewBox="0 0 35 55" fill="none" xmlns="http://www.w3.org/2000/svg">
<path d="M30 55H5L0 17.5H35L30 55ZM29.25 22.5H5.6875L9.375 50H25.625L29.25 22.5ZM17.5 37.5C19.5833 37.5 21.3542 36.7708 22.8125 35.3125C24.2708 33.8542 25 32.0833 25 30V25H20V30C20 30.7083 19.7608 31.3017 19.2825 31.78C18.8025 32.26 18.2083 32.5 17.5 32.5C16.7917 32.5 16.1983 32.26 15.72 31.78C15.24 31.3017 15 30.7083 15 30V25H10V30C10 32.0833 10.7292 33.8542 12.1875 35.3125C13.6458 36.7708 15.4167 37.5 17.5 37.5ZM25 15C23.9583 15 23.0733 14.635 22.345 13.905C21.615 13.1767 21.25 12.2917 21.25 11.25C21.25 10.2083 21.615 9.32333 22.345 8.595C23.0733 7.865 23.9583 7.5 25 7.5C26.0417 7.5 26.9267 7.865 27.655 8.595C28.385 9.32333 28.75 10.2083 28.75 11.25C28.75 12.2917 28.385 13.1767 27.655 13.905C26.9267 14.635 26.0417 15 25 15ZM12.5 12.5C10.75 12.5 9.27083 11.8958 8.0625 10.6875C6.85417 9.47917 6.25 8 6.25 6.25C6.25 4.5 6.85417 3.02083 8.0625 1.8125C9.27083 0.604167 10.75 0 12.5 0C14.25 0 15.7292 0.604167 16.9375 1.8125C18.1458 3.02083 18.75 4.5 18.75 6.25C18.75 8 18.1458 9.47917 16.9375 10.6875C15.7292 11.8958 14.25 12.5 12.5 12.5Z" fill="white"/>
</svg>
