<svg width="103" height="70" viewBox="0 0 103 70" fill="none" xmlns="http://www.w3.org/2000/svg">
<path d="M102.958 49.3304C102.662 46.9598 101.447 44.9035 99.3364 43.2111C99.3102 43.1795 99.2812 43.1502 99.2499 43.1236L99.1433 43.048L99.1091 43.0241L97.9886 42.2286L97.9503 42.2008L97.8075 42.1014C97.7551 42.0711 97.699 42.0477 97.6405 42.0317C94.0959 39.9456 88.2277 38.4838 79.2494 41.6161C77.1069 38.0523 76.8635 35.1965 78.2979 30.8213C78.5534 30.0596 78.316 29.5564 77.5515 29.2303C76.0146 28.5839 73.9103 28.9141 72.4176 29.3039C71.7216 29.4828 71.3031 29.8726 71.1704 30.4633C70.2249 34.8385 67.4768 38.8359 64.8194 42.694L64.6625 42.9207C63.0249 39.4882 63.3649 36.8292 64.5055 33.4981C64.7329 32.8339 64.5538 32.3924 63.9242 32.0622C62.1659 31.1653 59.5285 31.7818 58.4784 32.0881C57.1467 32.4719 55.7184 36.0298 54.1231 40.2896C53.7207 41.3615 53.3747 42.2784 53.1675 42.7059C52.6746 43.7003 52.2039 44.8339 51.705 46.0371C50.5784 48.7596 49.309 51.8243 47.4944 53.7494C46.8346 52.3075 47.8727 50.0344 48.8805 47.8289C50.0735 45.2217 51.2 42.7576 49.9025 41.1845C49.6973 40.9358 49.4427 40.7313 49.1545 40.5835C48.8663 40.4358 48.5506 40.3479 48.2267 40.3254C47.8042 40.2936 47.3801 40.3618 46.9895 40.5243C47.1243 39.4007 47.1303 38.5137 46.7984 37.4418C46.3236 35.9124 45.0904 35.0553 43.3926 35.101C39.526 35.2124 36.255 38.0602 34.1889 40.4308C32.8129 42.0218 29.7632 43.2349 27.0856 44.2989C26.0274 44.7424 25.0215 45.1401 24.1827 45.5379C22.8449 44.4202 21.145 43.2926 19.3545 42.1014C14.3252 38.7643 8.62605 34.9797 8.4289 29.8488C8.14726 22.2697 16.8781 16.8942 24.4985 13.0579C30.2741 10.1543 35.2954 8.22925 39.8499 7.17721C46.2472 5.69958 51.6507 5.99789 55.9075 8.06021C58.237 9.18782 59.3274 11.6399 58.6353 14.1616C56.8248 20.7145 49.3231 25.2051 42.9077 27.2256C39.0432 28.4427 35.7541 28.9518 32.8491 28.7848C29.2079 28.576 26.2346 26.7702 24.9632 26.0006C24.7595 25.863 24.5441 25.7433 24.3195 25.6426L24.2611 25.6287C24.146 25.6004 24.0252 25.6039 23.912 25.639C23.7988 25.6741 23.6975 25.7393 23.6194 25.8276C23.3579 26.1358 23.4504 26.623 23.5449 26.8696C24.7822 30.0655 27.337 32.0841 31.1372 32.8697C32.3809 33.1159 33.6468 33.2351 34.9152 33.2256C43.809 33.2256 55.1571 28.1564 59.3254 23.982C62.1679 21.1381 64.238 18.2147 65.095 13.1732C65.9902 7.89315 62.3691 4.22394 58.6796 2.53352C49.7134 -1.55731 39.5301 0.0595334 32.5655 2.13577C24.418 4.56401 15.9889 8.979 9.44281 14.2531C1.3718 20.7503 -1.5452 26.7821 0.76828 32.2014C3.14412 37.756 8.93787 41.2303 14.5405 44.5912C16.351 45.6751 18.0731 46.7073 19.6241 47.7732C19.1574 47.9979 18.6806 48.2267 18.1958 48.4554C13.4924 50.7086 8.15732 53.2442 5.19808 57.4345C3.04957 60.4872 2.64722 63.526 4.00312 66.4673C4.72734 68.0324 6.01484 69.0944 7.80326 69.6234C8.73358 69.884 9.69705 70.0106 10.6639 69.9993C14.1462 69.9993 17.9785 68.6072 20.0647 67.3205C23.7501 65.0334 26.1381 61.9628 27.164 58.1942C28.0773 54.8412 27.8581 51.51 26.5303 48.5369L31.0466 46.2857C28.868 53.4451 30.5377 57.7209 32.3724 60.0795C33.0483 60.9486 34.2674 61.4716 35.6293 61.4955C36.9913 61.5193 38.2446 61.0122 38.9527 60.1491C40.2925 58.5084 41.2823 56.5893 42.1936 54.6701C42.1453 55.923 42.2056 57.1919 42.6382 58.2678C43.0264 59.2363 43.6661 59.8786 44.491 60.1252C45.3681 60.3897 46.396 60.167 47.3858 59.4988C51.8458 56.4819 54.8956 49.2409 57.3458 43.4199C57.6939 42.5926 58.0278 41.7971 58.3517 41.0533C58.9579 43.198 59.8012 45.2701 60.8663 47.2323C61.1037 47.6579 61.0836 47.8448 60.7617 48.1948C60.2769 48.7199 59.601 49.3543 58.8848 50.0265C56.7162 52.0609 54.0164 54.6005 53.6543 56.8339C53.5135 57.7288 54.1371 58.5442 55.1048 58.7291C58.0157 59.3019 61.5222 58.4646 64.4874 56.4918C67.1831 54.702 68.197 52.2061 67.505 49.0957C66.8351 46.1007 68.364 42.3818 72.0495 38.0344C72.653 40.5263 73.4577 42.5409 74.5682 44.3049L74.538 44.3287C71.8543 46.6456 68.1769 49.8176 68.7483 53.6658C68.7962 54.0318 68.9208 54.3839 69.114 54.6996C69.3073 55.0153 69.565 55.2877 69.8708 55.4994C70.1975 55.7175 70.5663 55.8665 70.9541 55.937C71.3418 56.0075 71.7401 55.998 72.1239 55.9091C75.6384 55.1793 78.2838 53.7096 80.207 51.4206C82.1302 49.1315 81.4281 46.5939 80.7803 44.6251C85.8096 43.2767 90.2877 43.3105 94.4801 44.7245C96.8338 45.52 98.5217 46.8266 99.4953 48.6304C100.72 50.8995 100.059 52.9936 97.6265 54.527C96.8801 54.9983 96.52 55.2867 96.4979 55.6506C96.493 55.7351 96.5087 55.8194 96.5437 55.8966C96.5787 55.9738 96.632 56.0415 96.6991 56.0941C96.9807 56.3228 97.8498 56.7205 99.8152 55.4975C101.626 54.3738 102.688 52.8445 102.96 50.9234C103.014 50.3937 103.013 49.8599 102.958 49.3304ZM22.5431 54.3142L22.523 54.5687C22.2092 57.4802 20.7125 60.0178 18.067 62.1259C16.4054 63.4504 14.6009 64.2638 12.9875 64.4189C11.8609 64.5263 11.0421 64.3752 10.5553 63.9675C10.1912 63.6632 9.99603 63.2078 9.95177 62.5754C9.62185 57.5081 17.6607 52.4726 22.185 50.816C22.5079 51.9528 22.6291 53.1364 22.5431 54.3142ZM43.133 40.0231C42.3887 44.2174 40.2181 52.1345 36.8062 55.2071C36.6432 55.3543 36.5064 55.406 36.4441 55.3921C36.3817 55.3781 36.3334 55.3046 36.2831 55.1932C35.1445 52.584 35.565 48.1769 37.289 44.7145C38.6147 42.0457 40.5078 40.2777 42.6241 39.7427C42.7119 39.7188 42.8025 39.7061 42.8937 39.7049C42.9649 39.7 43.0358 39.7189 43.0948 39.7586C43.1197 39.7976 43.136 39.8412 43.1426 39.8868C43.1492 39.9324 43.1459 39.9789 43.133 40.0231ZM59.9289 55.3125C59.2871 55.9748 58.408 55.8853 58.6152 55.6426L61.8823 52.2141C61.6187 53.3934 60.8402 54.3698 59.9289 55.3125ZM73.4818 52.3473C73.1711 52.4987 72.835 52.5924 72.49 52.6237C72.3975 50.82 74.1658 48.7895 75.91 47.4351C76.3787 49.3165 75.4191 51.3052 73.4818 52.3473Z" fill="#F1F1F1"/>
</svg>
