<svg width="55" height="55" viewBox="0 0 55 55" fill="none" xmlns="http://www.w3.org/2000/svg">
<path d="M52.7683 33.1445C53.164 31.364 53.3614 29.5452 53.3568 27.7212C53.3568 13.7493 41.8629 2.41266 27.6771 2.41266C26.2075 2.41159 24.7402 2.53212 23.2905 2.77301C20.9197 1.29297 18.1792 0.512299 15.3844 0.520821C7.17082 0.520821 0.498341 7.0936 0.498341 15.1931C0.489601 17.8092 1.19567 20.3781 2.54032 22.6223C2.19644 24.2961 2.02259 26.0004 2.02142 27.7092C2.02142 41.6956 13.5154 53.0178 27.6867 53.0178C29.2614 53.0218 30.8331 52.881 32.3821 52.5974C34.5532 53.7407 36.9707 54.3365 39.4245 54.3331C47.6525 54.3331 54.3106 47.7603 54.3106 39.6608C54.3243 37.3967 53.7955 35.1622 52.7683 33.1445ZM40.8575 39.7989C39.666 41.4518 37.9135 42.7694 35.6432 43.6943C33.373 44.6192 30.6908 45.0841 27.6075 45.0841C23.9211 45.0841 20.8377 44.4391 18.4125 43.1778C16.7314 42.2931 15.2815 41.0258 14.1796 39.4782C13.0854 37.9371 12.5388 36.396 12.5388 34.9138C12.5388 33.9889 12.8992 33.1901 13.6043 32.5175C14.3057 31.8725 15.2162 31.5361 16.2817 31.5361C17.1645 31.5361 17.9213 31.7884 18.5387 32.3073C19.1272 32.7974 19.6317 33.5265 20.0377 34.479C20.4312 35.3913 20.9282 36.2553 21.5187 37.0543C22.0248 37.7125 22.7399 38.2591 23.664 38.6939C24.6033 39.1287 25.8501 39.3521 27.3876 39.3521C29.5041 39.3521 31.2422 38.9041 32.5454 38.0212C33.8355 37.166 34.4529 36.1294 34.4529 34.8682C34.4529 33.8736 34.1298 33.088 33.4571 32.4718C32.7569 31.8268 31.8452 31.3223 30.7101 30.986C29.5461 30.6256 27.963 30.2437 26.0003 29.8377C23.3373 29.2767 21.0755 28.6041 19.2738 27.8473C17.4384 27.0762 15.9525 25.9976 14.8583 24.6667C13.7508 23.3069 13.2043 21.5977 13.2043 19.5929C13.1855 17.7401 13.7985 15.9361 14.9424 14.4784C16.0919 13.0069 17.7603 11.8574 19.9332 11.0731C22.0641 10.2887 24.6009 9.89592 27.4597 9.89592C29.7587 9.89592 31.7635 10.1626 33.4451 10.6671C35.1268 11.1716 36.5573 11.8863 37.6924 12.7547C38.8275 13.6231 39.6551 14.548 40.1873 15.5174C40.7194 16.4867 40.9872 17.4657 40.9872 18.4002C40.9872 19.2962 40.6365 20.1238 39.935 20.8385C39.5948 21.1926 39.1851 21.4724 38.7316 21.6605C38.2781 21.8486 37.7906 21.9409 37.2997 21.9316C36.3471 21.9316 35.6036 21.707 35.0859 21.259C34.6054 20.8385 34.1046 20.1935 33.558 19.2542C32.913 18.0639 32.1419 17.1101 31.259 16.4375C30.3894 15.7936 28.96 15.4573 26.9696 15.4573C25.1331 15.4573 23.634 15.8177 22.5253 16.5384C21.4599 17.2254 20.941 18.0242 20.941 18.9623C20.9278 19.4998 21.1124 20.0235 21.4599 20.4338C21.8826 20.9201 22.4033 21.3119 22.9878 21.5833C23.646 21.9141 24.3362 22.1769 25.0478 22.3676C25.7685 22.5646 26.954 22.8589 28.5948 23.2229C30.6824 23.6577 32.5887 24.1622 34.2715 24.6799C35.982 25.2264 37.4534 25.881 38.6582 26.6558C39.8547 27.4112 40.8505 28.4453 41.5602 29.6695C42.2473 30.8707 42.598 32.3878 42.598 34.1258C42.6743 36.1591 42.0609 38.1584 40.8575 39.7989Z" fill="#F1F1F1"/>
</svg>
