<svg width="65" height="47" viewBox="0 0 65 47" fill="none" xmlns="http://www.w3.org/2000/svg">
<path d="M65 29.4617C65 34.1729 64.0558 38.2267 62.2683 41.1866C59.9737 44.9885 56.4071 47 51.9552 47C43.4575 47 37.7448 36.3551 31.6987 25.0863C27.3056 16.9004 21.8534 6.71429 17.3707 6.71429C15.2106 6.71429 12.5629 9.33565 10.4616 13.5545C8.05808 18.5174 6.78186 23.9492 6.72414 29.4617C6.72414 32.9028 7.35172 35.8347 8.48922 37.7203C9.54547 39.4716 10.994 40.2857 13.0448 40.2857C16.8972 40.2857 21.6265 32.1726 23.1815 29.5177C23.6306 28.7482 24.3675 28.1885 25.23 27.9616C26.0925 27.7347 27.0099 27.8592 27.7805 28.3077C28.5511 28.7562 29.1116 29.492 29.3389 30.3533C29.5661 31.2145 29.4414 32.1306 28.9922 32.9C26.4959 37.1748 24.361 40.1738 22.2681 42.3504C19.2619 45.4781 16.25 47 13.0448 47C8.59289 47 5.02629 44.9885 2.73168 41.1866C0.944181 38.2267 0 34.1729 0 29.4617C0 17.1606 6.60647 0 17.3707 0C25.8683 0 31.581 10.6449 37.6272 21.9138C42.0259 30.0996 47.4808 40.2857 51.9552 40.2857C54.006 40.2857 55.4545 39.4716 56.5108 37.7203C57.6483 35.8347 58.2759 32.9028 58.2759 29.4617C58.219 23.9494 56.9437 18.5177 54.5412 13.5545C52.4399 9.33565 49.7922 6.71429 47.6293 6.71429C46.0267 6.71429 44.0963 8.1131 41.8886 10.8632C41.3313 11.5584 40.5202 12.0041 39.6338 12.1022C38.7474 12.2003 37.8583 11.9428 37.1621 11.3863C36.4658 10.8298 36.0195 10.02 35.9212 9.13487C35.823 8.24977 36.0808 7.36196 36.6381 6.66673C40.2384 2.18214 43.833 0 47.6293 0C52.5744 0 57.1552 3.75161 60.5593 10.5638C63.4147 16.4599 64.9311 22.9128 65 29.4617Z" fill="#F8F8F8"/>
</svg>
