<svg width="23" height="23" viewBox="0 0 23 23" fill="none" xmlns="http://www.w3.org/2000/svg">
<path d="M2.51696 20.4795H4.27883L15.1332 9.60959L13.3713 7.84521L2.51696 18.7151V20.4795ZM20.5132 7.78219L15.1647 2.48904L16.9265 0.724658C17.409 0.241553 18.0017 0 18.7048 0C19.407 0 19.9993 0.241553 20.4817 0.724658L22.2436 2.48904C22.726 2.97215 22.9777 3.55523 22.9987 4.2383C23.0197 4.92053 22.7889 5.5032 22.3065 5.9863L20.5132 7.78219ZM18.6884 9.6411L5.34853 23H0V17.6438L13.3399 4.28493L18.6884 9.6411ZM14.2523 8.7274L13.3713 7.84521L15.1332 9.60959L14.2523 8.7274Z" fill="white"/>
</svg>
