<svg width="55" height="55" viewBox="0 0 55 55" fill="none" xmlns="http://www.w3.org/2000/svg">
<path d="M37.5 35H20V30H37.5V35ZM45 25H20V20H45V25ZM45 15H20V10H45V15ZM5 10V50H45V55H5C3.67392 55 2.40215 54.4732 1.46447 53.5355C0.526784 52.5979 0 51.3261 0 50V10H5ZM50 0C51.3261 0 52.5979 0.526784 53.5355 1.46447C54.4732 2.40215 55 3.67392 55 5V40C55 42.775 52.775 45 50 45H15C13.6739 45 12.4021 44.4732 11.4645 43.5355C10.5268 42.5979 10 41.3261 10 40V5C10 2.225 12.225 0 15 0H50ZM15 5V40H50V5H15Z" fill="#9B51E0"/>
</svg>
