<svg width="24" height="24" viewBox="0 0 24 24" fill="none" xmlns="http://www.w3.org/2000/svg">
<path d="M11.9999 15.4284C13.8934 15.4284 15.4284 13.8934 15.4284 11.9999C15.4284 10.1063 13.8934 8.57129 11.9999 8.57129C10.1063 8.57129 8.57129 10.1063 8.57129 11.9999C8.57129 13.8934 10.1063 15.4284 11.9999 15.4284Z" stroke="#326B88" strokeWidth="2.05714" stroke-miterlimit="10" stroke-linecap="square"/>
<path d="M15.4287 19.8579C13.7371 20.5962 11.8524 20.7687 10.0549 20.3499C8.25743 19.931 6.64313 18.9432 5.45214 17.5332C4.26114 16.1232 3.55707 14.3665 3.44464 12.5242C3.3322 10.682 3.81741 8.85269 4.82811 7.30835C5.8388 5.76401 7.32098 4.58716 9.05421 3.95282C10.7874 3.31848 12.6791 3.26053 14.4479 3.78761C16.2167 4.31469 17.7682 5.39862 18.8715 6.87821C19.9748 8.35779 20.571 10.154 20.5716 11.9997V12.8568C20.5716 13.5388 20.3007 14.1928 19.8184 14.6751C19.3362 15.1573 18.6821 15.4282 18.0001 15.4282C17.3182 15.4282 16.6641 15.1573 16.1819 14.6751C15.6996 14.1928 15.4287 13.5388 15.4287 12.8568V8.57108" stroke="#326B88" strokeWidth="2.05714" stroke-miterlimit="10" stroke-linecap="square"/>
</svg>
