<svg width="16" height="14" viewBox="0 0 16 14" fill="none" xmlns="http://www.w3.org/2000/svg">
<path d="M7.49114 0.466555C7.67947 0.0137481 8.32094 0.0137548 8.50927 0.466561L10.0583 4.19096C10.1377 4.38185 10.3173 4.51227 10.5233 4.5288L14.5441 4.85114C15.033 4.89033 15.2312 5.50039 14.8587 5.81941L11.7953 8.44361C11.6383 8.57807 11.5697 8.78914 11.6177 8.99021L12.5537 12.9138C12.6675 13.3909 12.1485 13.7679 11.73 13.5123L8.2876 11.4097C8.1112 11.3019 7.88927 11.3019 7.71287 11.4097L4.27047 13.5123C3.85196 13.7679 3.33301 13.3909 3.4468 12.9138L4.38272 8.99021C4.4307 8.78914 4.36212 8.57807 4.20511 8.44361L1.14168 5.81941C0.769236 5.50039 0.967456 4.89033 1.4563 4.85114L5.4771 4.5288C5.68318 4.51227 5.8627 4.38185 5.9421 4.19096L7.49114 0.466555Z" fill="url(#paint0_linear_723_2068)"/>
<defs>
<linearGradient id="paint0_linear_723_2068" x1="0.948242" y1="0.126953" x2="15.0522" y2="0.126953" gradientUnits="userSpaceOnUse">
<stop offset="0.4999" stop-color="#DEE1E6"/>
<stop offset="0.5" stop-color="#DEE1E6"/>
</linearGradient>
</defs>
</svg>
