<svg width="38" height="40" viewBox="0 0 38 40" fill="none" xmlns="http://www.w3.org/2000/svg">
<mask id="mask0_740_4545" style="mask-type:alpha" maskUnits="userSpaceOnUse" x="19" y="20" width="19" height="20">
<path d="M19.9453 30.1276C19.9453 24.8972 24.1853 20.6572 29.4157 20.6572H37.9982V30.5715C37.9982 35.5567 33.9569 39.5979 28.9717 39.5979C23.9866 39.5979 19.9453 35.5567 19.9453 30.5715V30.1276Z" fill="#D9D9D9"/>
</mask>
<g mask="url(#mask0_740_4545)">
<path d="M19.9453 30.1276C19.9453 24.8972 24.1853 20.6572 29.4157 20.6572H37.9982V30.5715C37.9982 35.5567 33.9569 39.5979 28.9717 39.5979C23.9866 39.5979 19.9453 35.5567 19.9453 30.5715V30.1276Z" fill="#FF8149"/>
</g>
<mask id="mask1_740_4545" style="mask-type:alpha" maskUnits="userSpaceOnUse" x="0" y="0" width="19" height="40">
<path d="M0 9.02643C0 4.04127 4.04127 0 9.02643 0C14.0116 0 18.0529 4.04127 18.0529 9.02643V39.5979C8.08253 39.5979 0 31.5154 0 21.545V9.02643Z" fill="#D9D9D9"/>
</mask>
<g mask="url(#mask1_740_4545)">
<path d="M0 9.02643C0 4.04127 4.04127 0 9.02643 0C14.0116 0 18.0529 4.04127 18.0529 9.02643V39.5979C8.08253 39.5979 0 31.5154 0 21.545V9.02643Z" fill="#3EC1AA"/>
</g>
<mask id="mask2_740_4545" style="mask-type:alpha" maskUnits="userSpaceOnUse" x="19" y="0" width="19" height="19">
<path d="M19.9473 9.02643C19.9473 4.04127 23.9885 0 28.9737 0C33.9588 0 38.0001 4.04127 38.0001 9.02643V9.47035C38.0001 14.7007 33.7601 18.9407 28.5298 18.9407H19.9473V9.02643Z" fill="#D9D9D9"/>
</mask>
<g mask="url(#mask2_740_4545)">
<path d="M19.9473 9.02643C19.9473 4.04127 23.9885 0 28.9737 0C33.9588 0 38.0001 4.04127 38.0001 9.02643V9.47035C38.0001 14.7007 33.7601 18.9407 28.5298 18.9407H19.9473V9.02643Z" fill="#7052E5"/>
</g>
</svg>
