<svg width="55" height="58" viewBox="0 0 55 58" fill="none" xmlns="http://www.w3.org/2000/svg">
<mask id="path-1-inside-1_1308_1497" fill="white">
<path d="M23.4182 52.4001H19.773C10.452 52.4001 5.7928 52.4001 2.8964 49.4491C3.09944e-07 46.4981 0 41.7479 0 32.2501C0 22.7523 3.09944e-07 18.0021 2.8964 15.0511C5.7928 12.1001 10.452 12.1001 19.773 12.1001H29.6608C38.9818 12.1001 43.6436 12.1001 46.54 15.0511C48.7682 17.3209 49.2804 20.6567 49.4 26.4001"/>
</mask>
<path d="M23.4182 57.4001C26.1796 57.4001 28.4182 55.1615 28.4182 52.4001C28.4182 49.6387 26.1796 47.4001 23.4182 47.4001V57.4001ZM46.54 15.0511L42.9716 18.5535L42.9719 18.5538L46.54 15.0511ZM44.4011 26.5042C44.4586 29.265 46.7433 31.4565 49.5041 31.399C52.2649 31.3416 54.4564 29.0569 54.3989 26.296L44.4011 26.5042ZM23.4182 47.4001H19.773V57.4001H23.4182V47.4001ZM19.773 47.4001C14.9685 47.4001 11.878 47.3891 9.60427 47.0775C7.48452 46.7871 6.83346 46.3224 6.46479 45.9468L-0.671991 52.9515C1.85574 55.5269 4.98248 56.5377 8.24668 56.985C11.3569 57.4111 15.2565 57.4001 19.773 57.4001V47.4001ZM6.46479 45.9468C6.08378 45.5586 5.6102 44.8567 5.31908 42.6506C5.01024 40.3101 5 37.1378 5 32.2501H-5C-5 36.8602 -5.01024 40.8119 -4.59498 43.9588C-4.162 47.24 -3.18738 50.3887 -0.671991 52.9515L6.46479 45.9468ZM5 32.2501C5 27.3624 5.01024 24.1901 5.31908 21.8497C5.6102 19.6436 6.08378 18.9417 6.46479 18.5535L-0.671991 11.5488C-3.18738 14.1116 -4.162 17.2603 -4.59498 20.5415C-5.01024 23.6883 -5 27.64 -5 32.2501H5ZM6.46479 18.5535C6.83346 18.1779 7.48452 17.7132 9.60427 17.4227C11.878 17.1112 14.9685 17.1001 19.773 17.1001V7.10013C15.2565 7.10013 11.3569 7.08911 8.24668 7.51529C4.98248 7.96258 1.85574 8.97338 -0.671991 11.5488L6.46479 18.5535ZM19.773 17.1001H29.6608V7.10013H19.773V17.1001ZM29.6608 17.1001C34.4652 17.1001 37.5565 17.1111 39.831 17.4227C41.9519 17.7133 42.6033 18.1782 42.9716 18.5535L50.1084 11.5488C47.5803 8.97305 44.4526 7.96246 41.1883 7.51527C38.0775 7.08911 34.1774 7.10013 29.6608 7.10013V17.1001ZM42.9719 18.5538C43.6324 19.2267 44.2767 20.5329 44.4011 26.5042L54.3989 26.296C54.2841 20.7805 53.904 15.4152 50.1081 11.5484L42.9719 18.5538Z" fill="#1A335D" mask="url(#path-1-inside-1_1308_1497)"/>
<path d="M46.8442 49.8598L52 55M36.4 12.1L36.14 11.294C34.853 7.29 34.2108 5.288 32.6794 4.144C31.1454 3 29.1122 3 25.038 3H24.3542C20.2852 3 18.2494 3 16.718 4.144C15.184 5.288 14.5418 7.29 13.2548 11.294L13 12.1M49.5378 43.3676C49.5583 42.1505 49.3363 40.9416 48.8847 39.8112C48.4331 38.6808 47.761 37.6516 46.9076 36.7837C46.0541 35.9158 45.0364 35.2264 43.9138 34.7559C42.7912 34.2853 41.5861 34.043 40.3689 34.043C39.1517 34.043 37.9466 34.2853 36.824 34.7559C35.7014 35.2264 34.6837 35.9158 33.8302 36.7837C32.9768 37.6516 32.3047 38.6808 31.8531 39.8112C31.4015 40.9416 31.1795 42.1505 31.2 43.3676C31.2405 45.7726 32.2243 48.0654 33.9394 49.7519C35.6545 51.4383 37.9636 52.3834 40.3689 52.3834C42.7742 52.3834 45.0833 51.4383 46.7984 49.7519C48.5135 48.0654 49.4973 45.7726 49.5378 43.3676Z" stroke="#1A335D" strokeWidth="5" strokeLinecap="round" stroke-linejoin="round"/>
</svg>
