<svg width="46" height="46" viewBox="0 0 46 46" fill="none" xmlns="http://www.w3.org/2000/svg">
<path d="M3.4 16H42.6M3.4 30H42.6M2 23C2 25.7578 2.54318 28.4885 3.59853 31.0364C4.65388 33.5842 6.20073 35.8992 8.15076 37.8492C10.1008 39.7993 12.4158 41.3461 14.9636 42.4015C17.5115 43.4568 20.2422 44 23 44C25.7578 44 28.4885 43.4568 31.0364 42.4015C33.5842 41.3461 35.8992 39.7993 37.8492 37.8492C39.7993 35.8992 41.3461 33.5842 42.4015 31.0364C43.4568 28.4885 44 25.7578 44 23C44 17.4305 41.7875 12.089 37.8492 8.15076C33.911 4.21249 28.5695 2 23 2C17.4305 2 12.089 4.21249 8.15076 8.15076C4.21249 12.089 2 17.4305 2 23Z" stroke="#2D457B" stroke-width="4" stroke-linecap="round" stroke-linejoin="round"/>
<path d="M21.8628 2C18.0313 8.29909 16 15.575 16 23C16 30.425 18.0313 37.7009 21.8628 44M24.1372 2C27.9687 8.29909 30 15.575 30 23C30 30.425 27.9687 37.7009 24.1372 44" stroke="#2D457B" stroke-width="4" stroke-linecap="round" stroke-linejoin="round"/>
</svg>
