<svg width="24" height="24" viewBox="0 0 24 24" fill="none" xmlns="http://www.w3.org/2000/svg">
<g clip-path="url(#clip0_2_2677)">
<path d="M20.4481 20.4485H16.8921V14.8795C16.8921 13.5515 16.8684 11.842 15.0426 11.842C13.1905 11.842 12.9071 13.2889 12.9071 14.7828V20.4481H9.35115V8.99599H12.7649V10.5611H12.8127C13.1543 9.9769 13.648 9.49634 14.2411 9.17057C14.8343 8.84479 15.5047 8.68599 16.1809 8.71108C19.7851 8.71108 20.4496 11.0818 20.4496 14.166L20.4481 20.4485ZM5.33865 7.43064C4.19893 7.43083 3.27484 6.50702 3.27465 5.3673C3.27446 4.22758 4.19818 3.30349 5.3379 3.3033C6.47762 3.30302 7.40171 4.22683 7.4019 5.36655C7.402 5.91387 7.18468 6.43881 6.79775 6.8259C6.41082 7.21299 5.88596 7.43052 5.33865 7.43064ZM7.11671 20.4486H3.55693V8.99599H7.11662V20.4485L7.11671 20.4486ZM22.221 0.000770177H1.77005C0.803492 -0.0101048 0.0108359 0.764176 -0.000976562 1.73074V22.267C0.0104609 23.234 0.803023 24.009 1.76996 23.9989H22.221C23.19 24.0109 23.9856 23.2359 23.999 22.267V1.72915C23.9852 0.760708 23.1895 -0.0134798 22.221 -0.000823573" fill="#1A335D"/>
</g>
<defs>
<clipPath id="clip0_2_2677">
<rect width="24" height="24" fill="white"/>
</clipPath>
</defs>
</svg>
