<svg width="44" height="55" viewBox="0 0 44 55" fill="none" xmlns="http://www.w3.org/2000/svg">
<path d="M22 27.5C18.975 27.5 16.5 25.025 16.5 22C16.5 18.975 18.975 16.5 22 16.5C25.025 16.5 27.5 18.975 27.5 22C27.5 25.025 25.025 27.5 22 27.5ZM38.5 22.55C38.5 12.5675 31.2125 5.5 22 5.5C12.7875 5.5 5.5 12.5675 5.5 22.55C5.5 28.985 10.8625 37.51 22 47.685C33.1375 37.51 38.5 28.985 38.5 22.55ZM22 0C33.55 0 44 8.855 44 22.55C44 31.68 36.6575 42.4875 22 55C7.3425 42.4875 0 31.68 0 22.55C0 8.855 10.45 0 22 0Z" fill="#9B51E0"/>
</svg>
