<svg width="47" height="47" viewBox="0 0 47 47" fill="none" xmlns="http://www.w3.org/2000/svg">
<path d="M28.5139 18.0987C29.1444 19.0057 30.3907 19.2298 31.2977 18.5993C32.2047 17.9688 32.4288 16.7225 31.7983 15.8155L28.5139 18.0987ZM18.1287 28.5438C17.4982 27.6369 16.2519 27.4128 15.3449 28.0433C14.438 28.6737 14.2138 29.9201 14.8443 30.827L18.1287 28.5438ZM26.5687 11.8379C26.6869 10.7397 25.8924 9.75357 24.7942 9.63538C23.6959 9.51719 22.7098 10.3117 22.5917 11.4099L26.5687 11.8379ZM20.0739 34.8046C19.9557 35.9028 20.7501 36.889 21.8484 37.0072C22.9466 37.1254 23.9327 36.3309 24.0509 35.2327L20.0739 34.8046ZM42.3881 25.3733C41.2548 35.9036 31.7996 43.5213 21.2693 42.3881L20.8413 46.3651C33.568 47.7348 44.9954 38.528 46.3651 25.8013L42.3881 25.3733ZM21.2693 42.3881C10.739 41.2548 3.12123 31.7996 4.25451 21.2693L0.277477 20.8413C-1.09219 33.568 8.11455 44.9954 20.8413 46.3651L21.2693 42.3881ZM4.25451 21.2693C5.38779 10.739 14.843 3.12123 25.3733 4.25451L25.8013 0.27747C13.0745 -1.09219 1.64714 8.11454 0.277477 20.8413L4.25451 21.2693ZM25.3733 4.25451C35.9036 5.38778 43.5213 14.843 42.3881 25.3733L46.3651 25.8013C47.7348 13.0745 38.528 1.64713 25.8013 0.27747L25.3733 4.25451ZM23.5353 21.3328C21.935 21.1605 20.6231 20.5783 19.7871 19.8809C18.9381 19.1728 18.7497 18.5213 18.7949 18.101L14.8179 17.673C14.585 19.8368 15.7159 21.6939 17.2249 22.9526C18.7468 24.222 20.8314 25.0649 23.1073 25.3098L23.5353 21.3328ZM18.7949 18.101C18.8402 17.6807 19.1629 17.0843 20.1431 16.573C21.1084 16.0694 22.5141 15.7797 24.1144 15.9519L24.5424 11.9749C22.2665 11.7299 20.0503 12.1099 18.2932 13.0265C16.5509 13.9352 15.0508 15.5092 14.8179 17.673L18.7949 18.101ZM24.1144 15.9519C26.3013 16.1872 27.8662 17.1669 28.5139 18.0987L31.7983 15.8155C30.32 13.6891 27.5511 12.2987 24.5424 11.9749L24.1144 15.9519ZM23.1073 25.3098C24.7075 25.482 26.0195 26.0643 26.8555 26.7617C27.7045 27.4698 27.8929 28.1213 27.8477 28.5416L31.8247 28.9696C32.0576 26.8058 30.9267 24.9487 29.4177 23.69C27.8958 22.4205 25.8112 21.5777 23.5353 21.3328L23.1073 25.3098ZM22.5917 11.4099L22.3399 13.7494L26.3169 14.1774L26.5687 11.8379L22.5917 11.4099ZM20.3257 32.4651L20.0739 34.8046L24.0509 35.2327L24.3027 32.8932L20.3257 32.4651ZM22.5282 30.6907C20.3414 30.4553 18.7765 29.4756 18.1287 28.5438L14.8443 30.827C16.3226 32.9535 19.0915 34.3439 22.1002 34.6677L22.5282 30.6907ZM27.8477 28.5416C27.8025 28.9619 27.4797 29.5583 26.4995 30.0696C25.5342 30.5731 24.1285 30.8629 22.5282 30.6907L22.1002 34.6677C24.3761 34.9126 26.5923 34.5327 28.3495 33.6161C30.0917 32.7073 31.5919 31.1334 31.8247 28.9696L27.8477 28.5416ZM22.3399 13.7494L20.3257 32.4652L24.3027 32.8932L26.3169 14.1774L22.3399 13.7494Z" fill="white"/>
</svg>
