<svg width="48" height="64" viewBox="0 0 48 64" fill="none" xmlns="http://www.w3.org/2000/svg">
<path d="M16.333 64C11.9788 64 8.25134 62.4333 5.15061 59.3C2.04988 56.1667 0.499512 52.4 0.499512 48C0.499512 43.6 2.04988 39.8333 5.15061 36.7C8.25134 33.5667 11.9788 32 16.333 32C17.8504 32 19.253 32.184 20.5408 32.552C21.8286 32.92 23.0649 33.4693 24.2498 34.2V4.00001C24.2498 2.86668 24.6298 1.91601 25.3898 1.14801C26.1498 0.380014 27.0893 -0.00265283 28.2082 1.38408e-05H44.0417C45.1632 1.38408e-05 46.104 0.384014 46.864 1.15201C47.624 1.92001 48.0027 2.86935 48 4.00001V8.00001C48 9.13335 47.62 10.084 46.86 10.852C46.1 11.62 45.1606 12.0027 44.0417 12H32.1665V48C32.1665 52.4 30.6162 56.1667 27.5154 59.3C24.4147 62.4333 20.6872 64 16.333 64Z" fill="white"/>
</svg>
