<svg width="58" height="66" viewBox="0 0 58 66" fill="none" xmlns="http://www.w3.org/2000/svg">
<path d="M21.3843 38.1915C20.4503 37.6017 19.2151 37.8808 18.6254 38.8147C18.0356 39.7487 18.3147 40.9839 19.2486 41.5736L21.3843 38.1915ZM27.9976 44.7328L26.9298 46.4239C27.8638 47.0136 29.099 46.7346 29.6887 45.8006L27.9976 44.7328ZM39.3891 30.4383C39.9789 29.5043 39.6998 28.2691 38.7659 27.6794C37.8319 27.0896 36.5967 27.3687 36.007 28.3026L39.3891 30.4383ZM44.7399 11.316L53.2327 48.9101L57.1344 48.0287L48.6416 10.4346L44.7399 11.316ZM49.8927 54.1998L18.5642 61.2771L19.4456 65.1788L50.7741 58.1014L49.8927 54.1998ZM13.2746 57.937L4.78178 20.3429L0.880097 21.2243L9.37291 58.8184L13.2746 57.937ZM8.12187 15.0533L14.3876 13.6378L13.5061 9.73611L7.24045 11.1516L8.12187 15.0533ZM33.1846 9.39138L39.4503 7.97592L38.5689 4.07424L32.3032 5.4897L33.1846 9.39138ZM18.5642 61.2771C16.1812 61.8154 13.8129 60.32 13.2746 57.937L9.37291 58.8184C10.398 63.3563 14.9078 66.2039 19.4456 65.1788L18.5642 61.2771ZM53.2327 48.9101C53.7711 51.2932 52.2757 53.6614 49.8927 54.1998L50.7741 58.1014C55.3119 57.0763 58.1596 52.5666 57.1344 48.0287L53.2327 48.9101ZM48.6416 10.4346C47.6165 5.89672 43.1068 3.0491 38.5689 4.07424L39.4503 7.97592C41.8334 7.43757 44.2016 8.93298 44.7399 11.316L48.6416 10.4346ZM4.78178 20.3429C4.24343 17.9598 5.73884 15.5916 8.12187 15.0533L7.24045 11.1516C2.70259 12.1767 -0.145042 16.6864 0.880097 21.2243L4.78178 20.3429ZM19.2486 41.5736L26.9298 46.4239L29.0654 43.0417L21.3843 38.1915L19.2486 41.5736ZM29.6887 45.8006L39.3891 30.4383L36.007 28.3026L26.3065 43.665L29.6887 45.8006ZM19.2378 5.95663L25.5035 4.54116L24.6221 0.639483L18.3564 2.05495L19.2378 5.95663ZM27.453 13.1709L21.1873 14.5863L22.0687 18.488L28.3344 17.0725L27.453 13.1709ZM21.1873 14.5863C18.8043 15.1247 16.436 13.6293 15.8977 11.2462L11.996 12.1277C13.0212 16.6655 17.5309 19.5132 22.0687 18.488L21.1873 14.5863ZM30.7931 7.88125C31.3314 10.2643 29.836 12.6325 27.453 13.1709L28.3344 17.0725C32.8723 16.0474 35.7199 11.5377 34.6948 6.99983L30.7931 7.88125ZM25.5035 4.54116C27.8865 4.00282 30.2547 5.49823 30.7931 7.88125L34.6948 6.99983C33.6696 2.46197 29.1599 -0.385656 24.6221 0.639483L25.5035 4.54116ZM18.3564 2.05495C13.8185 3.08009 10.9709 7.5898 11.996 12.1277L15.8977 11.2462C15.3593 8.86321 16.8548 6.49498 19.2378 5.95663L18.3564 2.05495Z" fill="white"/>
</svg>
