<svg width="50" height="50" viewBox="0 0 50 50" fill="none" xmlns="http://www.w3.org/2000/svg">
<path d="M45 35V5H15V35H45ZM50 35C50 36.3261 49.4732 37.5979 48.5355 38.5355C47.5979 39.4732 46.3261 40 45 40H15C13.6739 40 12.4021 39.4732 11.4645 38.5355C10.5268 37.5979 10 36.3261 10 35V5C10 2.225 12.225 0 15 0H45C46.3261 0 47.5979 0.526784 48.5355 1.46447C49.4732 2.40215 50 3.67392 50 5V35ZM35 45V50H5C3.67392 50 2.40215 49.4732 1.46447 48.5355C0.526784 47.5979 0 46.3261 0 45V12.5H5V45H35Z" fill="white"/>
</svg>
