<svg width="20" height="20" viewBox="0 0 20 20" fill="none" xmlns="http://www.w3.org/2000/svg">
<path d="M12.8359 11.8754L11.0008 13.6857C10.0438 13.1086 9.15474 12.4258 8.35047 11.6499C7.57582 10.8443 6.89306 9.95516 6.31475 8.99879L8.12332 7.16365C8.23286 7.05242 8.30683 6.91112 8.33583 6.75772C8.36484 6.60432 8.34755 6.44577 8.28618 6.30222L6.40047 1.9068C6.32597 1.73348 6.19169 1.5927 6.02208 1.5101C5.85248 1.4275 5.65885 1.40858 5.47647 1.4568L2.01875 2.37137C1.84608 2.41613 1.69371 2.51818 1.58658 2.66081C1.47946 2.80344 1.42391 2.9782 1.42904 3.15651C1.64904 7.17803 3.32114 10.983 6.13475 13.8648C9.01705 16.6793 12.8231 18.3517 16.8456 18.5714C17.0241 18.5774 17.1993 18.5223 17.3422 18.4152C17.4851 18.3081 17.5872 18.1555 17.6316 17.9825L18.5453 14.5231C18.5938 14.3408 18.5751 14.1472 18.4926 13.9775C18.4102 13.8079 18.2695 13.6736 18.0962 13.5991L13.6999 11.7142C13.5562 11.652 13.3972 11.634 13.2433 11.6627C13.0893 11.6915 12.9475 11.7655 12.8359 11.8754Z" stroke="#326B88" strokeWidth="2.05714" strokeMiterlimit="10" strokeLinecap="square"/>
</svg>
