<svg width="39" height="39" viewBox="0 0 39 39" fill="none" xmlns="http://www.w3.org/2000/svg">
<path d="M11.7222 27.2778L17.3197 21.6803M17.3197 21.6803C18.3753 22.736 19.8336 23.3889 21.4444 23.3889C24.6661 23.3889 27.2778 20.7772 27.2778 17.5556C27.2778 14.3339 24.6661 11.7222 21.4444 11.7222C18.2228 11.7222 15.6111 14.3339 15.6111 17.5556C15.6111 19.1664 16.264 20.6247 17.3197 21.6803ZM37 19.5C37 29.165 29.165 37 19.5 37C9.83502 37 2 29.165 2 19.5C2 9.83502 9.83502 2 19.5 2C29.165 2 37 9.83502 37 19.5Z" stroke="white" stroke-width="3.64714" stroke-linecap="round"/>
</svg>
