<svg width="16" height="16" viewBox="0 0 16 16" fill="none" xmlns="http://www.w3.org/2000/svg">
<path d="M7.49016 1.46655C7.67849 1.01375 8.31996 1.01375 8.50829 1.46656L10.0574 5.19096C10.1368 5.38185 10.3163 5.51227 10.5224 5.5288L14.5432 5.85114C15.032 5.89033 15.2302 6.50039 14.8578 6.81941L11.7944 9.44361C11.6374 9.57807 11.5688 9.78914 11.6168 9.99021L12.5527 13.9138C12.6665 14.3909 12.1475 14.7679 11.729 14.5123L8.28663 12.4097C8.11023 12.3019 7.88829 12.3019 7.71189 12.4097L4.26949 14.5123C3.85098 14.7679 3.33203 14.3909 3.44582 13.9138L4.38175 9.99021C4.42972 9.78914 4.36115 9.57807 4.20413 9.44361L1.14071 6.81941C0.768259 6.50039 0.966479 5.89033 1.45533 5.85114L5.47613 5.5288C5.68221 5.51227 5.86173 5.38185 5.94113 5.19096L7.49016 1.46655Z" fill="url(#paint0_linear_757_3338)"/>
<defs>
<linearGradient id="paint0_linear_757_3338" x1="0.947266" y1="1.12695" x2="15.0512" y2="1.12695" gradientUnits="userSpaceOnUse">
<stop offset="0.4999" stop-color="#F3C63F"/>
<stop offset="0.5" stop-color="#F3C63F"/>
</linearGradient>
</defs>
</svg>
