<svg width="44" height="44" viewBox="0 0 44 44" fill="none" xmlns="http://www.w3.org/2000/svg">
<path d="M21.6667 0C33.6332 0 43.3333 9.70017 43.3333 21.6667C43.3333 33.6332 33.6332 43.3333 21.6667 43.3333C9.70017 43.3333 0 33.6332 0 21.6667C0 9.70017 9.70017 0 21.6667 0ZM21.6667 4.33333C17.0696 4.33333 12.6608 6.15952 9.41015 9.41015C6.15952 12.6608 4.33333 17.0696 4.33333 21.6667C4.33333 26.2638 6.15952 30.6726 9.41015 33.9232C12.6608 37.1738 17.0696 39 21.6667 39C26.2638 39 30.6726 37.1738 33.9232 33.9232C37.1738 30.6726 39 26.2638 39 21.6667C39 17.0696 37.1738 12.6608 33.9232 9.41015C30.6726 6.15952 26.2638 4.33333 21.6667 4.33333ZM21.6667 8.66667C22.1974 8.66674 22.7096 8.86157 23.1061 9.21422C23.5027 9.56686 23.7561 10.0528 23.8182 10.5798L23.8333 10.8333V20.7697L29.6985 26.6348C30.0871 27.0247 30.3127 27.5479 30.3295 28.0982C30.3463 28.6484 30.153 29.1844 29.789 29.5973C29.4249 30.0102 28.9173 30.269 28.3693 30.3212C27.8213 30.3734 27.274 30.2151 26.8385 29.8783L26.6348 29.6985L20.1348 23.1985C19.7981 22.8615 19.5818 22.4228 19.5195 21.9505L19.5 21.6667V10.8333C19.5 10.2587 19.7283 9.7076 20.1346 9.30127C20.5409 8.89494 21.092 8.66667 21.6667 8.66667Z" fill="#2D457B"/>
</svg>
