<svg width="50" height="49" viewBox="0 0 50 49" fill="none" xmlns="http://www.w3.org/2000/svg">
<path d="M42.187 36.186C43.1414 34.5158 43.8572 32.607 43.8572 30.4596C43.8572 24.4946 39.0852 19.7226 33.1202 19.7226C27.1552 19.7226 22.3832 24.4946 22.3832 30.4596C22.3832 36.4246 27.1552 41.1966 33.1202 41.1966C35.2676 41.1966 37.1764 40.4808 38.8466 39.5264L46.4818 47.1616L49.8222 43.8212L42.187 36.186ZM33.1202 36.4246C29.7798 36.4246 27.1552 33.8 27.1552 30.4596C27.1552 27.1192 29.7798 24.4946 33.1202 24.4946C36.4606 24.4946 39.0852 27.1192 39.0852 30.4596C39.0852 33.8 36.4606 36.4246 33.1202 36.4246ZM24.7692 43.5826V48.3546C11.5985 48.3546 0.909164 37.6653 0.909164 24.4946C0.909164 11.3238 11.5985 0.634521 24.7692 0.634521C36.3175 0.634521 45.9331 8.84238 48.152 19.7226H43.213C42.4688 16.8399 41.0607 14.1712 39.1011 11.9299C37.1414 9.68857 34.6847 7.93669 31.9272 6.81427V7.79253C31.9272 10.4171 29.7798 12.5645 27.1552 12.5645H22.3832V17.3365C22.3832 18.6489 21.3095 19.7226 19.9972 19.7226H15.2252V24.4946H19.9972V31.6526H17.6112L6.18223 20.2236C5.87205 21.6075 5.68117 23.0152 5.68117 24.4946C5.68117 35.0168 14.2469 43.5826 24.7692 43.5826Z" fill="white"/>
</svg>
