<svg width="25" height="21" viewBox="0 0 25 21" fill="none" xmlns="http://www.w3.org/2000/svg">
<g clip-path="url(#clip0_2_2675)">
<path d="M25 2.55759C24.0801 2.97729 23.0916 3.26094 22.0541 3.38855C23.1132 2.73544 23.9264 1.70121 24.3093 0.468946C23.3025 1.08366 22.201 1.51676 21.0523 1.74954C20.1167 0.72396 18.7838 0.0830078 17.3085 0.0830078C14.4759 0.0830078 12.1793 2.44586 12.1793 5.36014C12.1793 5.77381 12.2247 6.17652 12.3121 6.56286C8.04941 6.34271 4.27012 4.24181 1.74033 1.04901C1.29893 1.82842 1.046 2.73504 1.046 3.70204C1.046 5.53296 1.95156 7.14815 3.32773 8.09456C2.51323 8.06831 1.71665 7.84196 1.00449 7.43441C1.0042 7.45652 1.0042 7.47862 1.0042 7.50083C1.0042 10.0577 2.77217 12.1907 5.11846 12.6755C4.36317 12.8868 3.57093 12.9177 2.80225 12.7659C3.45488 14.8625 5.34912 16.3881 7.59346 16.4309C5.83809 17.8462 3.62646 18.6899 1.22354 18.6899C0.809473 18.6899 0.40127 18.6649 0 18.6162C2.26982 20.1135 4.96582 20.9871 7.8623 20.9871C17.2966 20.9871 22.4555 12.9458 22.4555 5.97215C22.4555 5.74326 22.4506 5.51568 22.4406 5.2894C23.4448 4.54253 24.3114 3.61745 25 2.55759Z" fill="#1A335D"/>
</g>
<defs>
<clipPath id="clip0_2_2675">
<rect width="25" height="21" fill="white"/>
</clipPath>
</defs>
</svg>
