<svg width="28" height="34" viewBox="0 0 28 34" fill="none" xmlns="http://www.w3.org/2000/svg">
<path fill-rule="evenodd" clip-rule="evenodd" d="M14.1251 1C12.2354 1 10.4231 1.75067 9.08695 3.08686C7.75075 4.42306 7.00008 6.23533 7.00008 8.125C7.00008 10.0147 7.75075 11.8269 9.08695 13.1631C10.4231 14.4993 12.2354 15.25 14.1251 15.25C16.0148 15.25 17.827 14.4993 19.1632 13.1631C20.4994 11.8269 21.2501 10.0147 21.2501 8.125C21.2501 6.23533 20.4994 4.42306 19.1632 3.08686C17.827 1.75067 16.0148 1 14.1251 1ZM9.25008 8.125C9.25008 6.83207 9.7637 5.59209 10.6779 4.67785C11.5922 3.76361 12.8322 3.25 14.1251 3.25C15.418 3.25 16.658 3.76361 17.5722 4.67785C18.4865 5.59209 19.0001 6.83207 19.0001 8.125C19.0001 9.41793 18.4865 10.6579 17.5722 11.5721C16.658 12.4864 15.418 13 14.1251 13C12.8322 13 11.5922 12.4864 10.6779 11.5721C9.7637 10.6579 9.25008 9.41793 9.25008 8.125ZM14.1251 17.5C10.6556 17.5 7.45758 18.289 5.08908 19.621C2.75508 20.935 1.00008 22.924 1.00008 25.375V25.528C0.998584 27.271 0.997084 29.458 2.91558 31.021C3.85908 31.789 5.18058 32.3365 6.96558 32.6965C8.75358 33.0595 11.0861 33.25 14.1251 33.25C17.1641 33.25 19.4951 33.0595 21.2861 32.6965C23.0711 32.3365 24.3911 31.789 25.3361 31.021C27.2546 29.458 27.2516 27.271 27.2501 25.528V25.375C27.2501 22.924 25.4951 20.935 23.1626 19.621C20.7926 18.289 17.5961 17.5 14.1251 17.5ZM3.25008 25.375C3.25008 24.0985 4.18308 22.7125 6.19158 21.583C8.16558 20.473 10.9676 19.75 14.1266 19.75C17.2826 19.75 20.0846 20.473 22.0586 21.583C24.0686 22.7125 25.0001 24.0985 25.0001 25.375C25.0001 27.337 24.9401 28.441 23.9141 29.275C23.3591 29.728 22.4291 30.1705 20.8391 30.4915C19.2536 30.8125 17.0861 31 14.1251 31C11.1641 31 8.99508 30.8125 7.41108 30.4915C5.82108 30.1705 4.89108 29.728 4.33608 29.2765C3.31008 28.441 3.25008 27.337 3.25008 25.375Z" fill="#2D457B" stroke="#2D457B" stroke-width="1.5"/>
</svg>
