<svg width="27" height="28" fill="none" xmlns="http://www.w3.org/2000/svg"><path d="M18.474 2.799a6.734 6.734 0 0 0-2.265-1.436A7.273 7.273 0 0 0 13.5.88c-1.957 0-3.727.676-4.984 1.907-1.256 1.23-1.89 2.933-1.744 4.755.288 3.602 3.307 6.53 6.728 6.53s6.434-2.928 6.726-6.527c.149-1.807-.475-3.493-1.752-4.746Zm6.446 25.08H2.08a2.207 2.207 0 0 1-.863-.161 2.03 2.03 0 0 1-.707-.479c-.211-.23-.363-.499-.443-.789a1.818 1.818 0 0 1-.023-.886C.592 22.87 2.3 20.608 4.987 19.02c2.386-1.41 5.409-2.186 8.513-2.186s6.127.776 8.513 2.186c2.686 1.588 4.395 3.85 4.943 6.544.066.293.058.596-.023.886-.08.29-.232.56-.443.79a2.03 2.03 0 0 1-.707.478c-.271.11-.566.165-.863.161Z" fill="#1A335D"/></svg>