<svg width="35" height="29" fill="none" xmlns="http://www.w3.org/2000/svg"><path d="M12.864 12.936a3.104 3.104 0 1 0 0-6.209 3.104 3.104 0 0 0 0 6.209ZM19.073 19.144c0 1.715 0 3.104-6.209 3.104-6.208 0-6.208-1.389-6.208-3.104s2.778-3.104 6.208-3.104 6.209 1.39 6.209 3.104Z" stroke="#1D2B4F" stroke-width="2.5"/><path d="M33.041 14.488c0 5.853 0 8.78-1.819 10.597-1.819 1.818-4.744 1.82-10.597 1.82h-6.209c-5.852 0-8.78 0-10.597-1.82C2.002 23.266 2 20.341 2 14.488S2 5.708 3.819 3.89c1.819-1.817 4.745-1.819 10.598-1.819h6.208c5.853 0 8.78 0 10.597 1.82.73.729 1.166 1.635 1.428 2.836m-4.265 7.76h-6.208m6.208-4.655h-7.76m7.76 9.312H23.73" stroke="#1D2B4F" stroke-width="2.5" stroke-linecap="round"/></svg>